0
SECTION
2
HEADER
9
$INSUNITS
70
4
9
$ACADVER
1
AC1014
9
$HANDSEED
5
FFFF
0
ENDSEC
0
SECTION
2
TABLES
0
TABLE
2
VPORT
5
8
100
AcDbSymbolTable
0
ENDTAB
0
TABLE
2
LTYPE
5
5
100
AcDbSymbolTable
0
LTYPE
5
14
100
AcDbSymbolTableRecord
100
AcDbLinetypeTableRecord
2
BYBLOCK
70
0
0
LTYPE
5
15
100
AcDbSymbolTableRecord
100
AcDbLinetypeTableRecord
2
BYLAYER
70
0
0
LTYPE
5
16
100
AcDbSymbolTableRecord
100
AcDbLinetypeTableRecord
2
DASHED
70
0
3
Dashed __ __ __ __ __ __ __ __ __ __ __ __ __ _
72
65
73
2
40
0.75
49
0.5
74
0
49
-0.25
74
0
0
ENDTAB
0
TABLE
2
LAYER
5
2
100
AcDbSymbolTable
70
3
0
LAYER
5
50
100
AcDbSymbolTableRecord
100
AcDbLayerTableRecord
2
1
70
0
62
7
6
DASHED
0
LAYER
5
51
100
AcDbSymbolTableRecord
100
AcDbLayerTableRecord
2
0
70
0
62
7
6
CONTINUOUS
0
ENDTAB
0
TABLE
2
STYLE
5
3
100
AcDbSymbolTable
70
1
0
STYLE
5
11
100
AcDbSymbolTableRecord
100
AcDbTextStyleTableRecord
2
STANDARD
70
0
0
ENDTAB
0
TABLE
2
VIEW
5
6
100
AcDbSymbolTable
70
0
0
ENDTAB
0
TABLE
2
UCS
5
7
100
AcDbSymbolTable
70
0
0
ENDTAB
0
TABLE
2
APPID
5
9
100
AcDbSymbolTable
70
2
0
APPID
5
12
100
AcDbSymbolTableRecord
100
AcDbRegAppTableRecord
2
ACAD
70
0
0
ENDTAB
0
TABLE
2
DIMSTYLE
5
A
100
AcDbSymbolTable
70
1
0
ENDTAB
0
TABLE
2
BLOCK_RECORD
5
1
100
AcDbSymbolTable
70
1
0
BLOCK_RECORD
5
1F
100
AcDbSymbolTableRecord
100
AcDbBlockTableRecord
2
*MODEL_SPACE
0
BLOCK_RECORD
5
1B
100
AcDbSymbolTableRecord
100
AcDbBlockTableRecord
2
*PAPER_SPACE
0
ENDTAB
0
ENDSEC
0
SECTION
2
BLOCKS
0
BLOCK
5
20
100
AcDbEntity
100
AcDbBlockBegin
2
*MODEL_SPACE
0
ENDBLK
5
21
100
AcDbEntity
100
AcDbBlockEnd
0
BLOCK
5
1C
100
AcDbEntity
100
AcDbBlockBegin
2
*PAPER_SPACE
0
ENDBLK
5
1D
100
AcDbEntity
100
AcDbBlockEnd
0
ENDSEC
0
SECTION
2
ENTITIES
0
LWPOLYLINE
5
100
100
AcDbEntity
8
0
100
AcDbPolyline
90
4
70
1
43
0.0
10
250.00000558793545
20
234.00001153349876
10
250.00000558793545
20
333.27957283449553
10
500.00000558793545
20
333.27957283449553
10
500.00000558793545
20
234.00001153349876
0
LINE
5
101
100
AcDbEntity
8
0
100
AcDbLine
10
95.999994412065121
20
672.14383942284553
30
0
11
94.999994412065092
21
672.14383942283052
31
0
0
SPLINE
5
102
100
AcDbEntity
8
0
100
AcDbSpline
70
0
71
3
72
8
73
4
74
0
42
0.000000001
43
0.0000000001
44
0.0000000001
40
-0.28260001485702962
40
-0.28260001485702962
40
-0.28260001485702962
40
-0.28260001485702962
40
0
40
0
40
0
40
0
10
96.000143033601148
20
674.96976791957422
30
0
10
96.000043958690924
20
674.02778035783217
30
0
10
95.999994412065078
20
673.08583947233262
30
0
10
95.999994412065078
20
672.14383942280904
30
0
0
LINE
5
103
100
AcDbEntity
8
0
100
AcDbLine
10
96.000143033601148
20
674.96976791957422
30
0
11
96.000143033601049
21
873.03025514731121
31
0
0
SPLINE
5
104
100
AcDbEntity
8
0
100
AcDbSpline
70
0
71
3
72
8
73
4
74
0
42
0.000000001
43
0.0000000001
44
0.0000000001
40
-0.31584136373750071
40
-0.31584136373750071
40
-0.31584136373750071
40
-0.31584136373750071
40
-0.033241356891506313
40
-0.033241356891506313
40
-0.033241356891506313
40
-0.033241356891506313
10
95.99999441206495
20
875.85618364418349
30
0
10
95.99999441206495
20
874.91418360243347
30
0
10
96.00004395869
20
873.9722427167078
30
0
10
96.000143033601049
20
873.03025514731121
30
0
0
LINE
5
105
100
AcDbEntity
8
0
100
AcDbLine
10
94.999994412064964
20
875.85618364416962
30
0
11
95.99999441206495
21
875.85618364418349
31
0
0
LINE
5
106
100
AcDbEntity
8
0
100
AcDbLine
10
94.999994412064964
20
875.85618364416962
30
0
11
94.999994412064979
21
924.0000115334999
31
0
0
LINE
5
107
100
AcDbEntity
8
0
100
AcDbLine
10
94.999994412064979
20
924.0000115334999
30
0
11
244.99999441206512
21
924.0000115334999
31
0
0
LINE
5
108
100
AcDbEntity
8
0
100
AcDbLine
10
244.99999441206512
20
924.0000115334999
30
0
11
244.99999441206512
21
624.0000115334999
31
0
0
LINE
5
109
100
AcDbEntity
8
0
100
AcDbLine
10
244.99999441206512
20
624.0000115334999
30
0
11
94.999994412065121
21
624.0000115334999
31
0
0
LINE
5
110
100
AcDbEntity
8
0
100
AcDbLine
10
94.999994412065121
20
624.0000115334999
30
0
11
94.999994412065092
21
672.14383942283052
31
0
0
LINE
5
111
100
AcDbEntity
8
0
100
AcDbLine
10
654.00000558793545
20
875.85618364414699
30
0
11
655.00000558793545
21
875.85618364416973
31
0
0
SPLINE
5
112
100
AcDbEntity
8
0
100
AcDbSpline
70
0
71
3
72
8
73
4
74
0
42
0.000000001
43
0.0000000001
44
0.0000000001
40
-0.28260001259281409
40
-0.28260001259281409
40
-0.28260001259281409
40
-0.28260001259281409
40
0
40
0
40
0
40
0
10
653.99985696639942
20
873.03025514730734
30
0
10
653.99995604131038
20
873.97224271625191
30
0
10
654.00000558793545
20
874.91418360219893
30
0
10
654.00000558793545
20
875.85618364417485
30
0
0
LINE
5
113
100
AcDbEntity
8
0
100
AcDbLine
10
653.99985696639942
20
873.03025514730734
30
0
11
653.99985696639931
21
674.96976791956263
31
0
0
SPLINE
5
114
100
AcDbEntity
8
0
100
AcDbSpline
70
0
71
3
72
8
73
4
74
0
42
0.000000001
43
0.0000000001
44
0.0000000001
40
-0.31588410548037754
40
-0.31588410548037754
40
-0.31588410548037754
40
-0.31588410548037754
40
-0.033284096894115878
40
-0.033284096894115878
40
-0.033284096894115878
40
-0.033284096894115878
10
654.00000558793545
20
672.14383942281813
30
0
10
654.00000558793545
20
673.08583947330908
30
0
10
653.99995604130936
20
674.0277803597819
30
0
10
653.99985696639931
20
674.96976791956263
30
0
0
LINE
5
115
100
AcDbEntity
8
0
100
AcDbLine
10
655.00000558793545
20
672.14383942283064
30
0
11
654.00000558793545
21
672.14383942281813
31
0
0
LINE
5
116
100
AcDbEntity
8
0
100
AcDbLine
10
655.00000558793545
20
672.14383942283064
30
0
11
655.00000558793545
21
624.00001153350001
31
0
0
LINE
5
117
100
AcDbEntity
8
0
100
AcDbLine
10
655.00000558793545
20
624.00001153350001
30
0
11
505.0000055879355
21
624.00001153350001
31
0
0
LINE
5
118
100
AcDbEntity
8
0
100
AcDbLine
10
505.0000055879355
20
624.00001153350001
30
0
11
505.00000558793533
21
924.00001153350001
31
0
0
LINE
5
119
100
AcDbEntity
8
0
100
AcDbLine
10
505.00000558793533
20
924.00001153350001
30
0
11
655.00000558793545
21
924.00001153350001
31
0
0
LINE
5
120
100
AcDbEntity
8
0
100
AcDbLine
10
655.00000558793545
20
924.00001153350001
30
0
11
655.00000558793545
21
875.85618364416973
31
0
0
LWPOLYLINE
5
121
100
AcDbEntity
8
0
100
AcDbPolyline
90
4
70
1
43
0.0
10
500.00000558793545
20
1314.0000115334988
10
500.00000558793545
20
1214.7204502325021
10
250.00000558793545
20
1214.7204502325021
10
250.00000558793545
20
1314.0000115334988
0
ENDSEC
0
SECTION
2
OBJECTS
0
DICTIONARY
5
C
100
AcDbDictionary
3
ACAD_GROUP
350
D
3
ACAD_MLINESTYLE
350
17
0
DICTIONARY
5
D
100
AcDbDictionary
0
DICTIONARY
5
1A
330
C
100
AcDbDictionary
0
DICTIONARY
5
17
100
AcDbDictionary
0
ENDSEC
0
EOF
