0
SECTION
2
HEADER
9
$INSUNITS
70
4
9
$ACADVER
1
AC1014
9
$HANDSEED
5
FFFF
0
ENDSEC
0
SECTION
2
TABLES
0
TABLE
2
VPORT
5
8
100
AcDbSymbolTable
0
ENDTAB
0
TABLE
2
LTYPE
5
5
100
AcDbSymbolTable
0
LTYPE
5
14
100
AcDbSymbolTableRecord
100
AcDbLinetypeTableRecord
2
BYBLOCK
70
0
0
LTYPE
5
15
100
AcDbSymbolTableRecord
100
AcDbLinetypeTableRecord
2
BYLAYER
70
0
0
LTYPE
5
16
100
AcDbSymbolTableRecord
100
AcDbLinetypeTableRecord
2
DASHED
70
0
3
Dashed __ __ __ __ __ __ __ __ __ __ __ __ __ _
72
65
73
2
40
0.75
49
0.5
74
0
49
-0.25
74
0
0
ENDTAB
0
TABLE
2
LAYER
5
2
100
AcDbSymbolTable
70
3
0
LAYER
5
50
100
AcDbSymbolTableRecord
100
AcDbLayerTableRecord
2
1
70
0
62
7
6
DASHED
0
LAYER
5
51
100
AcDbSymbolTableRecord
100
AcDbLayerTableRecord
2
0
70
0
62
7
6
CONTINUOUS
0
ENDTAB
0
TABLE
2
STYLE
5
3
100
AcDbSymbolTable
70
1
0
STYLE
5
11
100
AcDbSymbolTableRecord
100
AcDbTextStyleTableRecord
2
STANDARD
70
0
0
ENDTAB
0
TABLE
2
VIEW
5
6
100
AcDbSymbolTable
70
0
0
ENDTAB
0
TABLE
2
UCS
5
7
100
AcDbSymbolTable
70
0
0
ENDTAB
0
TABLE
2
APPID
5
9
100
AcDbSymbolTable
70
2
0
APPID
5
12
100
AcDbSymbolTableRecord
100
AcDbRegAppTableRecord
2
ACAD
70
0
0
ENDTAB
0
TABLE
2
DIMSTYLE
5
A
100
AcDbSymbolTable
70
1
0
ENDTAB
0
TABLE
2
BLOCK_RECORD
5
1
100
AcDbSymbolTable
70
1
0
BLOCK_RECORD
5
1F
100
AcDbSymbolTableRecord
100
AcDbBlockTableRecord
2
*MODEL_SPACE
0
BLOCK_RECORD
5
1B
100
AcDbSymbolTableRecord
100
AcDbBlockTableRecord
2
*PAPER_SPACE
0
ENDTAB
0
ENDSEC
0
SECTION
2
BLOCKS
0
BLOCK
5
20
100
AcDbEntity
100
AcDbBlockBegin
2
*MODEL_SPACE
0
ENDBLK
5
21
100
AcDbEntity
100
AcDbBlockEnd
0
BLOCK
5
1C
100
AcDbEntity
100
AcDbBlockBegin
2
*PAPER_SPACE
0
ENDBLK
5
1D
100
AcDbEntity
100
AcDbBlockEnd
0
ENDSEC
0
SECTION
2
ENTITIES
0
LWPOLYLINE
5
100
100
AcDbEntity
8
0
100
AcDbPolyline
90
20
70
1
43
0.0
10
1682.6912896732738
20
598.80376428153636
10
954.69128967327435
20
598.80376428153636
10
954.69128967327435
20
240.43983225903617
10
979.69128967327492
20
190.43983225903631
10
979.69128967327492
20
140.20376440267441
10
1130.6912784974043
20
140.20376440267441
10
1130.6912784974043
20
-159.79623559732551
10
979.69128967327435
20
-159.79623559732545
10
979.69128967327435
20
-210.03230369596332
10
954.69128967327492
20
-260.03230369596349
10
954.69128967327492
20
-618.39623571846323
10
1682.6912896732738
20
-618.39623571846323
10
1682.6912896732738
20
-260.0323036959627
10
1657.6912896732745
20
-210.03230369596304
10
1657.6912896732745
20
-159.79623559732516
10
1506.6912896732742
20
-159.79623559732539
10
1506.6912896732742
20
140.20376440267441
10
1657.6912896732738
20
140.20376440267469
10
1657.6912896732738
20
190.43983225903659
10
1682.6912896732738
20
240.43983225903645
0
LWPOLYLINE
5
101
100
AcDbEntity
8
0
100
AcDbPolyline
90
8
70
1
43
0.0
10
160.93121673271924
20
-619.39623571846312
10
890.9312167327181
20
-619.39623571846312
10
890.93121673271844
20
-259.79623571846344
10
865.93121673271867
20
-209.79623571846338
10
865.93121673271867
20
-59.796235718463464
10
185.93121673271895
20
-59.796235718463464
10
185.93121673271895
20
-209.79623571846361
10
160.93121673271924
20
-259.79623571846366
0
LWPOLYLINE
5
102
100
AcDbEntity
8
0
100
AcDbPolyline
90
4
70
1
43
0.0
10
185.93121673271895
20
-59.796235718463464
10
865.93121673271867
20
-59.796235718463464
10
865.93121673271867
20
40.203764281536394
10
185.93121673271895
20
40.203764281536394
0
LWPOLYLINE
5
103
100
AcDbEntity
8
0
100
AcDbPolyline
90
4
70
1
43
0.0
10
1218.6912896732747
20
-263.3962357184634
10
1418.6912896732742
20
-263.39623571846334
10
1418.6912896732742
20
-513.39623571846323
10
1218.6912896732747
20
-513.39623571846323
0
LWPOLYLINE
5
104
100
AcDbEntity
8
0
100
AcDbPolyline
90
8
70
1
43
0.0
10
865.9312167327181
20
190.20376428153639
10
890.9312167327181
20
240.20376428153611
10
890.9312167327181
20
599.80376428153602
10
160.93121673271867
20
599.80376428153602
10
160.93121673271895
20
240.20376428153583
10
185.93121673271924
20
190.20376428153611
10
185.93121673271895
20
40.203764281536394
10
865.93121673271867
20
40.203764281536394
0
CIRCLE
5
105
100
AcDbEntity
8
0
100
AcDbCircle
10
1428.6912896732742
20
-388.39623571846334
30
-2.8421709430404007e-13
40
2.5000000000000004
210
-2.2106064642884654e-32
220
3.4694469519536134e-18
230
1
0
CIRCLE
5
106
100
AcDbEntity
8
0
100
AcDbCircle
10
1293.6912896732747
20
-253.39623571846332
30
-2.8421709430404007e-13
40
2.5000000000000004
210
-2.2106064642884654e-32
220
3.4694469519536134e-18
230
1
0
CIRCLE
5
107
100
AcDbEntity
8
0
100
AcDbCircle
10
1428.6912896732742
20
-463.39623571846323
30
-2.8421709430404007e-13
40
2.5000000000000004
210
-2.2106064642884654e-32
220
3.4694469519536134e-18
230
1
0
CIRCLE
5
108
100
AcDbEntity
8
0
100
AcDbCircle
10
1208.6912896732747
20
-313.39623571846334
30
-8.5265128291212022e-13
40
2.5000000000000004
210
-2.2106064642884654e-32
220
3.4694469519536134e-18
230
1
0
CIRCLE
5
109
100
AcDbEntity
8
0
100
AcDbCircle
10
1293.6912896732747
20
-523.39623571846323
30
-5.6843418860808015e-13
40
2.5000000000000004
210
-2.2106064642884654e-32
220
3.4694469519536134e-18
230
1
0
LWPOLYLINE
5
110
100
AcDbEntity
8
0
100
AcDbPolyline
90
4
70
1
43
0.0
10
1253.6912896732747
20
-73.396235718463458
10
1383.6912896732742
20
-73.396235718463458
10
1383.6912896732742
20
-193.39623571846352
10
1253.6912896732747
20
-193.39623571846352
0
CIRCLE
5
111
100
AcDbEntity
8
0
100
AcDbCircle
10
1318.6912896732747
20
36.603764281536399
30
-5.6843418860808015e-13
40
5.0000000000000009
210
-2.2106064642884654e-32
220
3.4694469519536134e-18
230
1
0
CIRCLE
5
112
100
AcDbEntity
8
0
100
AcDbCircle
10
1343.6912896732742
20
-523.39623571846323
30
-5.6843418860808015e-13
40
2.5000000000000004
210
-2.2106064642884654e-32
220
3.4694469519536134e-18
230
1
0
CIRCLE
5
113
100
AcDbEntity
8
0
100
AcDbCircle
10
1318.6912896732747
20
-215.3962357184634
30
-2.8421709430404007e-13
40
5.0000000000000009
210
-2.2106064642884654e-32
220
3.4694469519536134e-18
230
1
0
CIRCLE
5
114
100
AcDbEntity
8
0
100
AcDbCircle
10
1393.6912896732742
20
-253.39623571846332
30
-2.8421709430404007e-13
40
2.5000000000000004
210
-2.2106064642884654e-32
220
3.4694469519536134e-18
230
1
0
CIRCLE
5
115
100
AcDbEntity
8
0
100
AcDbCircle
10
1393.6912896732742
20
-523.39623571846323
30
-5.6843418860808015e-13
40
2.5000000000000004
210
-2.2106064642884654e-32
220
3.4694469519536134e-18
230
1
0
CIRCLE
5
116
100
AcDbEntity
8
0
100
AcDbCircle
10
1428.6912896732742
20
-313.39623571846334
30
-8.5265128291212022e-13
40
2.5000000000000004
210
-2.2106064642884654e-32
220
3.4694469519536134e-18
230
1
0
CIRCLE
5
117
100
AcDbEntity
8
0
100
AcDbCircle
10
1208.6912896732747
20
-388.39623571846334
30
-2.8421709430404007e-13
40
2.500000000000036
210
-2.2106064642884654e-32
220
3.4694469519536134e-18
230
1
0
CIRCLE
5
118
100
AcDbEntity
8
0
100
AcDbCircle
10
1343.6912896732742
20
-253.39623571846332
30
-2.8421709430404007e-13
40
2.5000000000000004
210
-2.2106064642884654e-32
220
3.4694469519536134e-18
230
1
0
CIRCLE
5
119
100
AcDbEntity
8
0
100
AcDbCircle
10
1243.6912896732747
20
-253.39623571846332
30
-2.8421709430404007e-13
40
2.5000000000000004
210
-2.2106064642884654e-32
220
3.4694469519536134e-18
230
1
0
CIRCLE
5
120
100
AcDbEntity
8
0
100
AcDbCircle
10
1208.6912896732747
20
-463.39623571846323
30
-2.8421709430404007e-13
40
2.5000000000000004
210
-2.2106064642884654e-32
220
3.4694469519536134e-18
230
1
0
CIRCLE
5
121
100
AcDbEntity
8
0
100
AcDbCircle
10
1243.6912896732747
20
-523.39623571846323
30
-5.6843418860808015e-13
40
2.5000000000000004
210
-2.2106064642884654e-32
220
3.4694469519536134e-18
230
1
0
LWPOLYLINE
5
122
100
AcDbEntity
8
0
100
AcDbPolyline
90
4
70
1
43
0.0
10
163.69222114986479
20
616.52700006065561
10
893.69222114986428
20
616.52700006065561
10
893.69222114986428
20
763.52700006070177
10
163.69222114986485
20
763.52700006070177
0
LWPOLYLINE
5
123
100
AcDbEntity
8
0
100
AcDbPolyline
90
4
70
1
43
0.0
10
915.68947774289779
20
615.3749351763704
10
1275.2894777428976
20
615.37493517638393
10
1275.2894777428976
20
762.37493517641656
10
915.68947774289779
20
762.37493517641667
0
LWPOLYLINE
5
124
100
AcDbEntity
8
0
100
AcDbPolyline
90
4
70
1
43
0.0
10
165.88698925440718
20
783.79677196520993
10
895.88698925440622
20
783.79677196521004
10
895.88698925440622
20
930.79677196525608
10
165.88698925440724
20
930.79677196525597
0
LWPOLYLINE
5
125
100
AcDbEntity
8
0
100
AcDbPolyline
90
4
70
1
43
0.0
10
920.0790139519836
20
780.44993897638301
10
1279.6790139519831
20
780.44993897639642
10
1279.6790139519831
20
927.44993897642894
10
920.0790139519836
20
927.44993897642894
0
LWPOLYLINE
5
126
100
AcDbEntity
8
0
100
AcDbPolyline
90
4
70
1
43
0.0
10
1304.1851404087674
20
615.37493517637051
10
1663.7851404087669
20
615.37493517638416
10
1663.7851404087669
20
762.37493517641656
10
1304.1851404087674
20
762.37493517641656
0
LWPOLYLINE
5
127
100
AcDbEntity
8
0
100
AcDbPolyline
90
4
70
1
43
0.0
10
1301.9903723042273
20
927.44993897642973
10
1301.9903723042273
20
780.44993897638369
10
1661.5903723042265
20
780.44993897639733
10
1661.5903723042265
20
927.44993897642973
0
LWPOLYLINE
5
128
100
AcDbEntity
8
0
100
AcDbPolyline
90
4
70
1
43
0.0
10
662.39700772029528
20
1578.2118664392879
10
1062.3970077202941
20
1578.2118664393035
10
1062.3970077202941
20
1725.2118664393192
10
662.39700772029494
20
1725.2118664393186
0
LWPOLYLINE
5
129
100
AcDbEntity
8
0
100
AcDbPolyline
90
4
70
1
43
0.0
10
241.99686124397175
20
1727.7904135535832
10
241.99686124397189
20
1580.7904135535525
10
641.99686124396987
20
1580.7904135535684
10
641.99686124396987
20
1727.7904135535834
0
LWPOLYLINE
5
130
100
AcDbEntity
8
0
100
AcDbPolyline
90
4
70
1
43
0.0
10
1354.3377911837322
20
-423.78684974145614
10
1410.2394906212267
20
-423.78684974145443
10
1410.2394906212267
20
-276.7868497414413
10
1354.3377911837322
20
-276.7868497414413
0
LWPOLYLINE
5
131
100
AcDbEntity
8
0
100
AcDbPolyline
90
4
70
1
43
0.0
10
1347.0650848328141
20
-276.99004068602892
10
1291.1633853953203
20
-276.99004068602892
10
1291.1633853953203
20
-423.99004068604381
10
1347.0650848328141
20
-423.99004068604211
0
LWPOLYLINE
5
132
100
AcDbEntity
8
0
100
AcDbPolyline
90
4
70
1
43
0.0
10
1246.3090759616978
20
-436.38283846912952
10
1246.3090759616994
20
-492.28453790662388
10
1393.3090759617126
20
-492.28453790662354
10
1393.3090759617126
20
-436.38283846912941
0
LWPOLYLINE
5
133
100
AcDbEntity
8
0
100
AcDbPolyline
90
4
70
1
43
0.0
10
1229.1960235015845
20
-423.8581150908874
10
1285.0977229390787
20
-423.85811509088569
10
1285.0977229390785
20
-276.85811509087245
10
1229.1960235015845
20
-276.85811509087245
0
LWPOLYLINE
5
134
100
AcDbEntity
8
0
100
AcDbPolyline
90
8
70
1
43
0.0
10
548.81857674660057
20
1233.3360482184842
10
547.84877278639601
20
1233.0921624280584
10
616.29602401548254
20
960.91388098257539
10
879.40152155730902
20
960.91388098257596
10
947.8487727863951
20
1233.0921624280586
10
946.87896882619054
20
1233.3360482184848
10
946.81763655573957
20
1233.0921624280586
10
548.87990901705143
20
1233.0921624280584
0
LWPOLYLINE
5
135
100
AcDbEntity
8
0
100
AcDbPolyline
90
8
70
1
43
0.0
10
903.07920531873856
20
956.52309691379833
10
903.14053758918953
20
956.76698270422457
10
1301.078265127878
20
956.76698270422446
10
1301.1395973983285
20
956.52309691379867
10
1302.1094013585332
20
956.76698270422446
10
1233.6621501294467
20
1228.9452641497073
10
970.55665258762031
20
1228.9452641497069
10
902.10940135853411
20
956.76698270422457
0
LWPOLYLINE
5
136
100
AcDbEntity
8
0
100
AcDbPolyline
90
7
70
1
43
0.0
10
996.50229029401953
20
-148.05794796516778
10
1016.8808086380661
20
131.8541080123025
10
1015.8935150306673
20
131.68471003799294
10
1015.8551264564766
20
131.92878104873066
10
1012.6071328816391
20
132.16524566407222
10
996.65121477238256
20
129.42755934087478
10
976.195698355025
20
-151.54211469512316
0
LWPOLYLINE
5
137
100
AcDbEntity
8
0
100
AcDbPolyline
90
7
70
1
43
0.0
10
937.54828446023089
20
597.30771424192699
10
937.49863666987517
20
597.54974613615514
10
934.24317803326517
20
597.63557644440414
10
918.4311247695789
20
594.16207378860133
10
911.00632137158664
20
312.54663001057099
10
931.12982107525136
20
316.96724689688506
10
938.5266762393934
20
597.52264182828537
0
LWPOLYLINE
5
138
100
AcDbEntity
8
0
100
AcDbPolyline
90
7
70
1
43
0.0
10
940.34989918601445
20
-327.58342523185291
10
940.30380439690452
20
-327.34069160969085
10
937.04995358884139
20
-327.20715249422653
10
921.18868496186246
20
-330.44851126121955
10
909.63680196746964
20
-611.92486884579444
10
929.82293650622501
20
-607.79969413892195
10
941.33133623109165
20
-327.38286185668215
0
LWPOLYLINE
5
139
100
AcDbEntity
8
0
100
AcDbPolyline
90
7
70
1
43
0.0
10
1054.8884438527123
20
131.838641665442
10
1054.8584801200232
20
132.08388953114985
10
1051.6205518969327
20
132.43202542215687
10
1035.5798467678162
20
130.24524055064794
10
1005.4641382349358
20
-149.85372406607252
10
1025.878635930417
20
-147.07067217648148
10
1055.8809837694819
20
131.97395188135152
0
LINE
5
140
100
AcDbEntity
8
0
100
AcDbLine
10
1059.7942539928833
20
-140.3614542625823
30
0
11
1080.3621902043753
21
-141.56855574090315
31
0
0
LINE
5
141
100
AcDbEntity
8
0
100
AcDbLine
10
1080.3621902043753
20
-141.56855574090315
30
0
11
1080.3621902043753
21
121.53694180092373
31
0
0
LINE
5
142
100
AcDbEntity
8
0
100
AcDbLine
10
1059.7942539928833
20
120.32984032260288
30
0
11
1059.7942539928833
21
-140.3614542625823
31
0
0
LINE
5
143
100
AcDbEntity
8
0
100
AcDbLine
10
1080.3621902043753
20
121.53694180092373
30
0
11
1059.7942539928833
21
120.32984032260288
31
0
0
LINE
5
144
100
AcDbEntity
8
0
100
AcDbLine
10
1096.3064817480983
20
123.22209171581278
30
0
11
1096.3064817480983
21
-137.46920286937211
31
0
0
LINE
5
145
100
AcDbEntity
8
0
100
AcDbLine
10
1116.8744179595903
20
124.42919319413363
30
0
11
1096.3064817480983
21
123.22209171581278
31
0
0
LINE
5
146
100
AcDbEntity
8
0
100
AcDbLine
10
1116.8744179595903
20
-138.67630434769268
30
0
11
1116.8744179595903
21
124.42919319413363
31
0
0
LINE
5
147
100
AcDbEntity
8
0
100
AcDbLine
10
1096.3064817480983
20
-137.46920286937211
30
0
11
1116.8744179595903
21
-138.67630434769268
31
0
0
LWPOLYLINE
5
148
100
AcDbEntity
8
0
100
AcDbPolyline
90
4
70
1
43
0.0
10
1362.5611033570699
20
1266.2470370573867
10
1664.5611033868715
20
1266.2470370573867
10
1664.5611033868715
20
1554.2470496435858
10
1362.5611033570699
20
1554.2470496435858
0
LWPOLYLINE
5
149
100
AcDbEntity
8
0
100
AcDbPolyline
90
4
70
1
43
0.0
10
1037.0797142937042
20
1554.247049643586
10
1037.0797142937042
20
1266.2470370573869
10
1339.0797143235059
20
1266.2470370573869
10
1339.0797143235056
20
1554.247049643586
0
LWPOLYLINE
5
150
100
AcDbEntity
8
0
100
AcDbPolyline
90
4
70
1
43
0.0
10
854.74918134865425
20
1269.8140369803648
10
982.92159515665855
20
1269.8140369803648
10
1006.753594813526
20
1557.8140495665639
10
854.74918134865425
20
1557.8140495665639
0
LWPOLYLINE
5
151
100
AcDbEntity
8
0
100
AcDbPolyline
90
4
70
1
43
0.0
10
677.70832320400348
20
1270.0081774076566
10
829.71273666887532
20
1270.0081774076566
10
829.71273666887532
20
1558.0081899938564
10
701.5403228608709
20
1558.0081899938564
0
LWPOLYLINE
5
152
100
AcDbEntity
8
0
100
AcDbPolyline
90
4
70
1
43
0.0
10
1644.7219910666836
20
-155.09559568326819
10
1668.5539907235511
20
132.90441690292988
10
1516.5495772586792
20
132.90441690292988
10
1516.5495772586792
20
-155.09559568326819
0
LWPOLYLINE
5
153
100
AcDbEntity
8
0
100
AcDbPolyline
90
4
70
1
43
0.0
10
229.96281091003297
20
1563.521487927793
10
206.13081125316555
20
1275.5214753415942
10
358.13522471803719
20
1275.5214753415942
10
358.13522471803719
20
1563.521487927793
0
LINE
5
154
100
AcDbEntity
8
0
100
AcDbLine
10
503.55960097984962
20
1562.1440502911196
30
0
11
503.55960097984905
21
1260.1440502613179
31
0
0
LINE
5
155
100
AcDbEntity
8
0
100
AcDbLine
10
375.38718717184508
20
1260.1440502613175
30
0
11
503.55960097984905
21
1260.1440502613179
31
0
0
LINE
5
156
100
AcDbEntity
8
0
100
AcDbLine
10
375.3871871718452
20
1562.1440502911196
30
0
11
375.38718717184508
21
1260.1440502613175
31
0
0
LINE
5
157
100
AcDbEntity
8
0
100
AcDbLine
10
503.55960097984962
20
1562.1440502911196
30
0
11
375.3871871718452
21
1562.1440502911196
31
0
0
LINE
5
158
100
AcDbEntity
8
0
100
AcDbLine
10
648.39548643860644
20
1562.1440502911214
30
0
11
648.3954864386061
21
1260.1440502613209
31
0
0
LINE
5
159
100
AcDbEntity
8
0
100
AcDbLine
10
520.22307263060236
20
1260.1440502613202
30
0
11
648.3954864386061
21
1260.1440502613209
31
0
0
LINE
5
160
100
AcDbEntity
8
0
100
AcDbLine
10
520.22307263060236
20
1562.1440502911214
30
0
11
520.22307263060236
21
1260.1440502613202
31
0
0
LINE
5
161
100
AcDbEntity
8
0
100
AcDbLine
10
648.39548643860644
20
1562.1440502911214
30
0
11
520.22307263060236
21
1562.1440502911214
31
0
0
LWPOLYLINE
5
162
100
AcDbEntity
8
0
100
AcDbPolyline
90
6
70
1
43
0.0
10
1276.3136297200308
20
1239.1583414186689
10
1325.2995986556352
20
950.25671215335024
10
1627.3276607844246
20
950.25671215335001
10
1676.3136297200288
20
1239.1583414186689
10
1676.3136297200288
20
1239.2410914150937
10
1276.3136297200308
20
1239.2410914150942
0
LWPOLYLINE
5
163
100
AcDbEntity
8
0
100
AcDbPolyline
90
6
70
1
43
0.0
10
574.26090988419128
20
947.98283280591431
10
525.27494094858685
20
1236.8844620712327
10
223.24687881979767
20
1236.884462071233
10
174.26090988419361
20
947.98283280591409
10
174.26090988419361
20
947.90008280948928
10
574.26090988419128
20
947.90008280948928
0
LWPOLYLINE
5
164
100
AcDbEntity
8
0
100
AcDbPolyline
90
5
70
1
43
0.0
10
1095.302627489086
20
1679.8898722429328
10
1094.3178616221294
20
1680.0637578009218
10
1084.5973634229083
20
1625.0136722900093
10
1085.582129289865
20
1624.8397867320202
10
1387.441802676487
20
1683.8454469406859
0
LWPOLYLINE
5
165
100
AcDbEntity
8
0
100
AcDbPolyline
90
5
70
1
43
0.0
10
1373.9142228680366
20
1596.3288506767262
10
1374.8989887349933
20
1596.1549651187372
10
1384.6194869342144
20
1651.20505062965
10
1383.6347210672579
20
1651.3789361876391
10
1081.7750476806368
20
1592.3732759789734
0
LWPOLYLINE
5
166
100
AcDbEntity
8
0
100
AcDbPolyline
90
5
70
1
43
0.0
10
890.23676485469093
20
-147.62219342269475
10
890.06287929670191
20
-148.60695928965129
10
945.1129648076153
20
-158.32745748887248
10
945.2868503656041
20
-157.34269162191595
10
886.28119015693858
20
144.51698176470614
0
LWPOLYLINE
5
167
100
AcDbEntity
8
0
100
AcDbPolyline
90
5
70
1
43
0.0
10
963.87080859514367
20
138.42387687096129
10
964.0446941531327
20
139.40864273791783
10
908.99460864221953
20
149.12914093713903
10
908.82072308423074
20
148.14437507018249
10
967.82638329289625
20
-153.71529831643912
0
ENDSEC
0
SECTION
2
OBJECTS
0
DICTIONARY
5
C
100
AcDbDictionary
3
ACAD_GROUP
350
D
3
ACAD_MLINESTYLE
350
17
0
DICTIONARY
5
D
100
AcDbDictionary
0
DICTIONARY
5
1A
330
C
100
AcDbDictionary
0
DICTIONARY
5
17
100
AcDbDictionary
0
ENDSEC
0
EOF
